<mxfile host="app.diagrams.net" modified="2023-01-27T10:47:35.750Z" agent="5.0 (Macintosh; Intel Mac OS X 10_15_7) AppleWebKit/537.36 (KHTML, like Gecko) Chrome/106.0.0.0 Safari/537.36" etag="ifOR6yNWIGy_nWoIdSNt" version="20.8.13" type="github">
  <diagram name="第 1 页" id="H-BbwGXChIxzdPBjMTnD">
    <mxGraphModel dx="1381" dy="703" grid="1" gridSize="10" guides="1" tooltips="1" connect="1" arrows="1" fold="1" page="1" pageScale="1" pageWidth="827" pageHeight="1169" math="0" shadow="0">
      <root>
        <mxCell id="0" />
        <mxCell id="1" parent="0" />
        <mxCell id="CV5RAxnwvXIoGlGvh3aF-1" value="部署 VM&lt;br&gt;装机服务&lt;br&gt;用户管理&lt;br&gt;VCenter 资源池&lt;br&gt;......" style="ellipse;whiteSpace=wrap;html=1;aspect=fixed;" vertex="1" parent="1">
          <mxGeometry x="180" y="100" width="140" height="140" as="geometry" />
        </mxCell>
        <mxCell id="CV5RAxnwvXIoGlGvh3aF-2" value="网关服务&lt;br&gt;配额管理&lt;br&gt;权限管理&lt;br&gt;资源迁移&lt;br&gt;......" style="ellipse;whiteSpace=wrap;html=1;aspect=fixed;" vertex="1" parent="1">
          <mxGeometry x="330" y="70" width="140" height="140" as="geometry" />
        </mxCell>
        <mxCell id="CV5RAxnwvXIoGlGvh3aF-3" value="部署 SCP&lt;br&gt;部署 KM&lt;br&gt;TestBed&lt;br&gt;HCI 资源池&lt;br&gt;HCI授权破解&lt;br&gt;......" style="ellipse;whiteSpace=wrap;html=1;aspect=fixed;" vertex="1" parent="1">
          <mxGeometry x="220" y="240" width="140" height="140" as="geometry" />
        </mxCell>
        <mxCell id="CV5RAxnwvXIoGlGvh3aF-4" value="资源调度&lt;br&gt;公有池&lt;br&gt;报表&lt;br&gt;资源聚合&lt;br&gt;IP 管理&lt;br&gt;......&lt;br&gt;" style="ellipse;whiteSpace=wrap;html=1;aspect=fixed;" vertex="1" parent="1">
          <mxGeometry x="370" y="220" width="140" height="140" as="geometry" />
        </mxCell>
      </root>
    </mxGraphModel>
  </diagram>
</mxfile>
